Coordinates
version=1
nRows=32
nColumns=12
inDegrees=yes

Units are S.I. units (second, meters, Newtons, ...)
Angles are in degrees

endheader
time	SC_y	SC_z	SC_x	AC_y	AC_z	AC_x	GH_y	GH_z	GH_yy	EL_x	PS_y
       0.0              -30.32          17.86          72.73           60.5         -10.91         -3.763         -62.04        -0.4265          167.9          61.62          115.6
    0.0339              -30.33          17.86          72.72           60.5         -10.91         -3.764         -62.02        -0.4169          167.9          61.62          115.5
   0.06779              -30.33          17.86          72.72           60.5         -10.91         -3.765         -61.99        -0.4068          167.9          61.62          115.5
    0.1017              -30.33          17.85          72.71           60.5         -10.91         -3.766         -61.96         -0.396          167.9          61.61          115.5
    0.1356              -30.34          17.85          72.71          60.49         -10.91         -3.767         -61.93        -0.3846          167.9          61.61          115.5
    0.1695              -30.34          17.85           72.7          60.49         -10.91         -3.768         -61.89        -0.3723          167.9          61.61          115.5
    0.2034              -30.34          17.85          72.69          60.49         -10.91         -3.769         -61.86        -0.3593          167.9           61.6          115.5
    0.2373              -30.35          17.84          72.69          60.49         -10.91          -3.77         -61.82        -0.3453          167.9           61.6          115.5
    0.2712              -30.35          17.84          72.68          60.48         -10.92         -3.771         -61.78        -0.3304          167.9           61.6          115.5
    0.3051              -30.36          17.84          72.67          60.48         -10.92         -3.773         -61.74        -0.3143          167.9          61.59          115.5
     0.339              -30.36          17.83          72.66          60.48         -10.92         -3.774         -61.69        -0.2971          167.9          61.59          115.4
    0.3729              -30.37          17.83          72.65          60.47         -10.92         -3.776         -61.64        -0.2785          167.8          61.58          115.4
    0.4068              -30.38          17.83          72.64          60.47         -10.92         -3.778         -61.59        -0.2586          167.8          61.58          115.4
    0.4407              -30.38          17.82          72.63          60.46         -10.92          -3.78         -61.53         -0.237          167.8          61.57          115.4
    0.4746              -30.39          17.82          72.62          60.46         -10.92         -3.782         -61.47        -0.2136          167.8          61.57          115.4
    0.5085               -30.4          17.81           72.6          60.45         -10.92         -3.784          -61.4        -0.1883          167.8          61.56          115.3
    0.5424              -30.41          17.81          72.59          60.45         -10.92         -3.786         -61.32        -0.1607          167.8          61.55          115.3
    0.5763              -30.42           17.8          72.57          60.44         -10.93         -3.789         -61.24        -0.1307          167.8          61.55          115.3
    0.6102              -30.43          17.79          72.56          60.43         -10.93         -3.792         -61.15       -0.09796          167.7          61.54          115.3
    0.6441              -30.44          17.79          72.54          60.43         -10.93         -3.795         -61.06       -0.06209          167.7          61.53          115.2
    0.6779              -30.45          17.78          72.52          60.42         -10.93         -3.798         -60.95       -0.02272          167.7          61.52          115.2
    0.7118              -30.47          17.77          72.49          60.41         -10.94         -3.802         -60.83        0.02063          167.7          61.51          115.1
    0.7457              -30.48          17.76          72.47           60.4         -10.94         -3.806          -60.7        0.06851          167.6           61.5          115.1
    0.7796               -30.5          17.75          72.44          60.39         -10.94         -3.811         -60.56         0.1216          167.6          61.48          115.1
    0.8135              -30.52          17.74          72.41          60.38         -10.94         -3.816          -60.4         0.1805          167.6          61.47          115.0
    0.8474              -30.54          17.72          72.37          60.36         -10.95         -3.821         -60.22         0.2463          167.5          61.45          114.9
    0.8813              -30.56          17.71          72.33          60.35         -10.95         -3.828         -60.02           0.32          167.5          61.43          114.9
    0.9152              -30.59          17.69          72.29          60.33         -10.96         -3.835          -59.8         0.4029          167.4          61.41          114.8
    0.9491              -30.62          17.67          72.24          60.31         -10.96         -3.843         -59.54         0.4966          167.4          61.39          114.7
     0.983              -30.65          17.65          72.19          60.29         -10.97         -3.852         -59.26          0.603          167.3          61.36          114.6
     1.017              -30.69          17.63          72.12          60.26         -10.97         -3.863         -58.93         0.7244          167.2          61.33          114.5
     1.051              -30.74           17.6          72.05          60.23         -10.98         -3.875         -58.55         0.8638          167.1           61.3          114.4
